<svg data-v-423bf9ae="" xmlns="http://www.w3.org/2000/svg" viewBox="0 0 395.9154495806616 256" class="iconAbove"><!----><!----><!----><g data-v-423bf9ae="" id="f1a993d5-31a3-4866-ab49-2196bc1522c6" fill="white" transform="matrix(6.036216979508284,0,0,6.036216979508284,-3.9838986366987967,179.8353894585152)"><path d="M5.33 12.46L5.33 12.46Q3.01 12.46 1.83 11.22L1.83 11.22L1.83 11.22Q0.66 9.98 0.66 7.49L0.66 7.49L0.66 7.49Q0.66 5.00 1.83 3.76L1.83 3.76L1.83 3.76Q3.01 2.52 5.33 2.52L5.33 2.52L5.33 2.52Q7.21 2.52 8.34 3.45L8.34 3.45L8.34 3.45Q9.46 4.38 9.46 6.16L9.46 6.16L8.11 6.16L8.11 6.16Q8.11 4.93 7.37 4.29L7.37 4.29L7.37 4.29Q6.64 3.65 5.33 3.65L5.33 3.65L5.33 3.65Q3.64 3.65 2.84 4.55L2.84 4.55L2.84 4.55Q2.04 5.45 2.03 7.46L2.03 7.46L2.03 7.49L2.03 7.49Q2.03 9.52 2.83 10.42L2.83 10.42L2.83 10.42Q3.63 11.33 5.33 11.33L5.33 11.33L5.33 11.33Q6.66 11.33 7.41 10.70L7.41 10.70L7.41 10.70Q8.16 10.07 8.16 8.85L8.16 8.85L9.46 8.85L9.46 8.85Q9.46 10.64 8.34 11.55L8.34 11.55L8.34 11.55Q7.22 12.46 5.33 12.46L5.33 12.46ZM11.21 12.29L11.21 2.69L12.40 2.69L17.47 9.38L17.81 9.83L17.86 9.81L17.86 9.16L17.86 2.69L19.11 2.69L19.11 12.29L17.98 12.29L12.88 5.52L12.52 5.03L12.46 5.04L12.46 5.70L12.46 12.29L11.21 12.29ZM24.01 12.29L20.44 2.69L21.88 2.69L24.42 9.67L24.89 10.96L24.96 10.96L25.44 9.65L27.96 2.69L29.33 2.69L25.76 12.29L24.01 12.29ZM30.66 12.29L30.66 2.69L35.66 2.69L35.66 2.69Q37.10 2.69 37.87 3.43L37.87 3.43L37.87 3.43Q38.64 4.17 38.64 5.42L38.64 5.42L38.64 5.42Q38.64 6.40 38.17 7.11L38.17 7.11L38.17 7.11Q37.70 7.83 36.88 8.13L36.88 8.13L39.09 12.29L37.60 12.29L35.52 8.33L31.99 8.33L31.99 12.29L30.66 12.29ZM31.99 7.17L35.59 7.17L35.59 7.17Q36.37 7.17 36.83 6.71L36.83 6.71L36.83 6.71Q37.30 6.24 37.30 5.43L37.30 5.43L37.30 5.43Q37.30 4.68 36.86 4.26L36.86 4.26L36.86 4.26Q36.43 3.85 35.59 3.85L35.59 3.85L31.99 3.85L31.99 7.17ZM43.27 12.29L43.27 3.85L39.97 3.85L39.97 2.69L47.91 2.69L47.91 3.85L44.60 3.85L44.60 12.29L43.27 12.29ZM49.49 12.29L49.49 10.78L50.89 10.78L50.89 12.29L49.49 12.29ZM53.40 12.29L53.40 2.69L54.73 2.69L54.73 12.29L53.40 12.29ZM61.45 12.46L61.45 12.46Q59.16 12.46 57.91 11.21L57.91 11.21L57.91 11.21Q56.66 9.95 56.66 7.49L56.66 7.49L56.66 7.49Q56.66 5.03 57.91 3.77L57.91 3.77L57.91 3.77Q59.16 2.52 61.45 2.52L61.45 2.52L61.45 2.52Q63.74 2.52 65.00 3.77L65.00 3.77L65.00 3.77Q66.25 5.03 66.25 7.49L66.25 7.49L66.25 7.49Q66.25 9.94 65.00 11.20L65.00 11.20L65.00 11.20Q63.74 12.46 61.45 12.46L61.45 12.46ZM61.45 11.33L61.45 11.33Q63.11 11.33 63.99 10.42L63.99 10.42L63.99 10.42Q64.88 9.52 64.88 7.55L64.88 7.55L64.88 7.49L64.88 7.49Q64.86 5.49 63.98 4.57L63.98 4.57L63.98 4.57Q63.10 3.65 61.45 3.65L61.45 3.65L61.45 3.65Q59.81 3.65 58.93 4.57L58.93 4.57L58.93 4.57Q58.04 5.49 58.03 7.49L58.03 7.49L58.03 7.55L58.03 7.55Q58.03 9.52 58.91 10.42L58.91 10.42L58.91 10.42Q59.79 11.33 61.45 11.33L61.45 11.33Z"></path></g><!----><g data-v-423bf9ae="" id="89944777-d415-482c-bedd-82765a82f741" transform="matrix(1.4222308688693577,0,0,1.4222308688693577,106.97722439236111,0.9767550880509219)" stroke="none" fill="white"><path d="M97 33a31 31 0 1 0 31 31 31.035 31.035 0 0 0-31-31zm0 58c-2.402 0-5.602-5.708-7.124-15.297C92.216 75.9 94.61 76 97 76s4.784-.1 7.124-.297C102.602 85.291 99.402 91 97 91zm0-19a79.35 79.35 0 0 1-7.64-.36C89.13 69.266 89 66.716 89 64s.13-5.267.36-7.64c2.373-.23 4.923-.36 7.64-.36s5.267.13 7.64.36c.23 2.373.36 4.923.36 7.64s-.13 5.267-.36 7.64A79.35 79.35 0 0 1 97 72zm-11.703-.876C75.709 69.602 70 66.402 70 64s5.708-5.602 15.297-7.124C85.1 59.216 85 61.61 85 64s.1 4.784.297 7.124zM97 37c2.402 0 5.602 5.708 7.124 15.297C101.784 52.1 99.39 52 97 52s-4.784.1-7.124.297C91.398 42.709 94.598 37 97 37zm11.703 19.876C118.291 58.398 124 61.598 124 64s-5.708 5.602-15.297 7.124c.197-2.34.297-4.734.297-7.124s-.1-4.784-.297-7.124zm14.44.365c-3.618-2.155-8.945-3.659-14.897-4.487-.828-5.952-2.332-11.279-4.487-14.897a27.102 27.102 0 0 1 19.384 19.384zM90.241 37.857c-2.155 3.618-3.659 8.945-4.487 14.897-5.952.828-11.279 2.332-14.897 4.487A27.102 27.102 0 0 1 90.24 37.857zM70.857 70.759c3.618 2.155 8.945 3.659 14.897 4.487.828 5.952 2.332 11.279 4.487 14.897A27.102 27.102 0 0 1 70.857 70.76zm32.902 19.384c2.155-3.618 3.659-8.945 4.487-14.897 5.952-.828 11.279-2.332 14.897-4.487a27.102 27.102 0 0 1-19.384 19.384zM29.194 15.604a57.966 57.966 0 0 1 68.95-.472l-4.536.907a2 2 0 0 0 .39 3.961 1.98 1.98 0 0 0 .394-.04l8.334-1.666a1.999 1.999 0 0 0 1.568-1.568l1.667-8.334a2 2 0 0 0-3.922-.784l-.944 4.717a61.993 61.993 0 0 0-74.289.07 2 2 0 1 0 2.388 3.21zM50 92V44.829A3.973 3.973 0 0 0 48.828 42L38 31.172A3.973 3.973 0 0 0 35.171 30H4a4.005 4.005 0 0 0-4 4v58a4.005 4.005 0 0 0 4 4h42a4.005 4.005 0 0 0 4-4zM4 34h31.172L46 44.829 46.002 92H4z"></path><path d="M38 50H12a2 2 0 0 0 0 4h26a2 2 0 0 0 0-4zM38 60H12a2 2 0 0 0 0 4h26a2 2 0 0 0 0-4zM38 70H12a2 2 0 0 0 0 4h26a2 2 0 0 0 0-4zM38 80H12a2 2 0 0 0 0 4h26a2 2 0 0 0 0-4zM102.806 112.396a57.966 57.966 0 0 1-68.95.472l4.536-.907a2 2 0 0 0-.784-3.922l-8.334 1.667a1.999 1.999 0 0 0-1.568 1.568l-1.667 8.334a2 2 0 0 0 1.569 2.353 1.98 1.98 0 0 0 .394.04 2 2 0 0 0 1.959-1.609l.943-4.717a61.993 61.993 0 0 0 74.29-.07 2 2 0 0 0-2.388-3.21z"></path></g><!----></svg>